<svg width="1006" height="357" viewBox="0 0 1006 357" fill="none" xmlns="http://www.w3.org/2000/svg">
<path d="M159.394 140.264L124.647 80H0L159.394 356.669L318.788 80H194.141L159.394 140.264Z" fill="white"/>
<path d="M241.682 213.872L318.788 80H194.206L182.988 99.4165L241.682 213.872Z" fill="#FF7521"/>
<path d="M159.621 140.264L124.825 80H0L159.621 356.669L219.167 253.521L159.621 140.264Z" fill="#FF7521"/>
<g clip-path="url(#clip0)">
<path d="M92.8079 244.903C92.9854 245.471 93.0614 245.677 93.2896 246.064C94.6335 248.565 97.7777 252.15 97.7777 252.15L100.212 246.58C100.212 246.58 99.8063 244.826 99.1216 242.325C96.7635 242.944 94.5321 243.305 92.8079 244.903Z" fill="#F8A492"/>
<path d="M106.728 240.056C106.728 240.056 93.1625 245.987 92.7315 245.884C92.4525 245.806 87.1784 236.832 87.1023 228.374C87.0769 224.48 91.0579 219.761 95.5207 220.69C97.7521 221.154 97.7267 221.798 101.048 226.698C104.37 231.598 106.728 240.056 106.728 240.056Z" fill="#E6CF06"/>
<path d="M118.317 346.583C118.317 346.583 117.987 351.998 117.987 352.024C117.86 352.72 117.404 354.422 117.404 355.041C117.404 357.387 128.383 353.055 125.924 351.998C125.695 351.895 124.529 351.198 124.453 350.399C124.351 349.161 124.047 346.686 124.047 346.686L118.317 346.583Z" fill="#F7A491"/>
<path d="M125.898 351.946C125.898 351.946 123.312 352.668 121.993 352.849C120.675 353.029 118.925 351.508 118.012 351.92C116.998 352.359 117.023 356.407 117.023 356.407C117.023 356.407 130.843 357.568 134.722 356.356C136.244 355.917 131.147 353.622 125.898 351.946Z" fill="#0C1F6C"/>
<path d="M95.876 346.583C95.876 346.583 95.5464 351.998 95.5464 352.024C95.4196 352.72 94.9632 354.422 94.9632 355.041C94.9632 357.387 105.943 353.055 103.483 351.998C103.255 351.895 101.759 350.657 101.683 349.857C101.581 348.62 101.632 346.66 101.632 346.66L95.876 346.583Z" fill="#F7A491"/>
<path d="M103.455 351.946C103.455 351.946 100.869 352.668 99.5503 352.849C98.2317 353.029 96.4821 351.508 95.5693 351.92C94.555 352.359 94.5043 356.407 94.5043 356.407C94.5043 356.407 108.374 357.748 112.279 356.356C113.801 355.84 108.729 353.622 103.455 351.946Z" fill="#0C1F6C"/>
<path d="M99.2225 247.895L108.883 234.125C108.934 233.996 109.01 233.764 109.137 233.377C109.619 232.011 110.633 229.174 111.52 226.337V226.312C111.799 225.332 112.383 223.604 112.94 221.928C113.574 220.071 114.36 217.776 114.386 217.389C114.36 217.312 114.31 217.209 114.259 217.054C113.904 216.126 113.422 213.882 113.245 212.928C113.143 212.309 113.042 210.814 113.752 210.814C114.893 210.814 114.335 212.309 114.868 213.238C115.07 212.619 115.451 211.381 115.654 210.117L115.831 207.203C115.856 206.971 115.628 205.373 116.44 205.373H116.465C117.175 205.424 117.175 207.152 117.454 210.04C117.555 209.705 117.631 209.292 117.707 208.931C117.707 208.725 117.834 207.848 117.961 207.41C117.809 206.61 117.91 205.321 118.747 205.45C119.178 205.501 119.127 207.281 119.127 207.281C119.127 207.513 119.102 209.395 119.102 209.782C119.178 209.163 119.533 206.456 120.192 206.456C120.75 206.456 120.776 207.178 120.776 207.745C120.776 208.08 120.421 210.994 120.395 211.355C120.649 210.917 120.953 208.338 121.207 208.338C122.272 208.338 121.891 212 121.486 212.954C121.46 213.057 121.41 213.238 121.359 213.47C121.232 214.114 121.004 215.223 120.446 216.203C119.761 217.389 118.849 219.246 118.696 219.53C118.595 220.123 118.265 222.212 117.86 224.842C117.682 225.976 117.505 227.214 117.302 228.478C117.276 228.761 117.074 229.638 116.288 232.939C115.248 237.477 115.121 237.658 115.096 237.735C114.639 238.561 104.218 252.95 103.787 253.543L103.533 253.904L99.2225 247.895Z" fill="#F7A491"/>
<path d="M117.2 215.79C117.2 215.79 116.414 213.752 115.019 213.752C115.019 213.752 115.805 213.469 116.464 214.01C117.149 214.552 117.2 215.79 117.2 215.79Z" fill="#F47458"/>
<path d="M96.8879 211.87L95.6454 219.864C95.6454 219.864 100.387 223.732 103.151 222.907C105.458 222.211 103.886 219.142 103.886 219.142C103.886 219.142 102.644 214.862 103.024 212.644C103.404 210.4 96.8879 211.87 96.8879 211.87Z" fill="#F7A491"/>
<path d="M97.8007 214.268C98.9925 214.835 101.325 215.609 103.176 215.815C102.999 214.706 102.897 213.52 103.05 212.643C103.227 211.612 101.934 211.354 100.489 211.406C98.5868 211.56 96.8879 211.87 96.8879 211.87L96.6597 213.417C97.0147 213.778 97.395 214.087 97.8007 214.268Z" fill="#FE875E"/>
<path d="M90.9038 202.638C90.701 202.638 92.7802 211.587 95.9751 213.108C99.1701 214.655 103.962 213.856 104.85 211.432C105.839 208.776 102.238 199.647 97.7247 198.487C93.2366 197.352 90.9038 202.638 90.9038 202.638Z" fill="#F7A491"/>
<path d="M94.6336 194.411C92.0726 195.933 90.8808 198.15 90.5005 199.053C89.3087 199.646 87.838 200.884 87.1534 204.262C86.2913 208.414 89.3341 211.611 92.5797 212.565C95.8 213.519 96.3071 215.711 96.3071 215.711L96.6621 213.365C96.6621 213.365 95.9522 211.328 94.8618 210.296C93.7715 209.265 95.369 207.795 95.5211 206.583C95.6225 205.654 94.9632 203.849 95.09 202.302C95.09 202.302 96.8903 199.543 98.6653 198.847C101.683 197.712 97.9046 192.503 94.6336 194.411Z" fill="#4B4796"/>
<path d="M95.9767 208.156C96.3824 209.188 96.2303 210.219 95.5964 210.451C94.9625 210.684 94.1257 210.039 93.6946 209.007C93.2889 207.976 93.4411 206.944 94.075 206.712C94.7089 206.48 95.571 207.125 95.9767 208.156Z" fill="#F7A491"/>
<path d="M107.919 248.126L126.556 245.032C126.556 245.032 124.426 239.591 123.691 239.591C122.93 239.591 109.593 245.522 109.593 245.522L108.528 247.688L107.919 248.126Z" fill="#F8A492"/>
<path d="M98.3591 261.123C98.3591 261.123 96.5081 270.252 97.2688 277.189C98.0295 284.125 98.0802 308.726 98.0802 308.726L95.1896 348.103L102.061 348.258C102.061 348.258 110.201 308.881 110.049 309.912C109.896 310.918 112.787 282.191 112.787 282.191L103.101 260.247L98.3591 261.123Z" fill="#FFA24D"/>
<path d="M100.184 260.685C100.184 260.685 98.9673 268.911 100.489 272.521C102.01 276.132 113.471 311.537 113.623 314.425C113.775 317.313 117.604 349.238 117.604 349.238L125.592 349.006L127.316 313.523L123.715 268.937L120.216 257.668L100.184 260.685Z" fill="#D77215"/>
<path d="M95.6454 219.864C95.6454 219.864 97.6232 221.179 99.4489 221.024C101.275 220.87 103.886 219.142 103.886 219.142L103.531 217.904C103.531 217.904 98.7896 217.208 98.6628 217.285C98.536 217.337 95.6454 219.864 95.6454 219.864Z" fill="#F7A491"/>
<path d="M116.616 239.334C116.616 239.334 123.665 246.09 126.835 244.955C130.004 243.795 131.323 239.849 123.564 234.073C116.641 228.89 116.616 239.334 116.616 239.334Z" fill="#F8A492"/>
<path d="M121.384 247.689C120.345 241.887 112.738 223.861 112.154 220.535C111.85 218.91 107.768 218.885 103.863 219.091C99.7551 219.323 95.6474 219.839 95.6474 219.839C95.6474 219.839 91.996 220.458 90.3986 221.979C88.8011 223.5 88.37 227.73 90.6775 235.749C92.5032 242.093 94.7599 245.574 95.8756 250.164C96.1038 251.711 96.3066 253.233 96.5602 255.012C96.9659 261.923 96.5602 271.026 96.5602 271.026C96.5602 271.026 116.414 275.203 123.844 268.86C123.819 268.911 122.475 253.62 121.384 247.689Z" fill="#FFE921"/>
<path d="M126.455 235.233C126.455 235.233 118.67 241.783 118.214 241.783C117.909 241.783 107.108 233.686 104.597 227.033C103.228 223.345 106.119 219.245 109.415 219.245C111.697 219.245 112.737 219.864 117.276 223.758C121.814 227.652 126.455 235.233 126.455 235.233Z" fill="#E6CF06"/>
</g>
<g clip-path="url(#clip1)">
<path d="M689.99 150.864L695.404 150.35C695.838 150.317 696.256 150.549 696.423 150.947L700.516 160.711C700.767 161.325 700.366 162.004 699.697 162.071L694.067 162.601C693.633 162.651 693.215 162.386 693.048 161.988L689.188 152.207C688.921 151.594 689.339 150.931 689.99 150.864Z" fill="#0D0D38"/>
<path d="M758.607 279.773L755.733 281.282C755.733 281.282 740.212 264.953 736.469 249.27C735.801 246.469 735.534 243.717 735.818 241.097C735.818 241.097 735.584 240.385 735.2 239.125C735.183 239.075 735.166 239.009 735.149 238.959C734.982 238.412 734.765 237.765 734.531 237.019C733.779 234.649 732.76 231.416 731.574 227.719C728.867 219.231 722.686 200.068 720.046 192.11L739.026 185.297C739.026 185.297 741.181 190.171 744.272 203.433C744.756 205.157 745.224 207.08 745.675 209.169C746.176 211.523 746.661 214.109 747.045 216.911C747.713 221.635 748.148 226.957 748.181 232.792C748.198 235.163 748.131 237.633 747.997 240.169C747.897 242.026 748.165 244.512 748.699 247.331C751.122 260.228 758.607 279.773 758.607 279.773Z" fill="#0FBAB8"/>
<path d="M768.997 287H753.66C753.66 287 753.092 284.563 754.094 282.922C754.98 281.463 754.646 280.635 753.977 279.424C754.679 279.706 755.564 279.971 756.567 279.905C757.335 279.855 758.137 279.524 758.856 279.109C759.524 279.855 762.348 283.038 763.233 283.668C764.219 284.365 768.697 284.116 768.997 287Z" fill="#FF7A00"/>
<path d="M747.079 216.927L735.149 238.975C734.982 238.428 734.765 237.782 734.531 237.036C733.779 234.665 732.76 231.433 731.574 227.736C728.867 219.248 722.686 200.084 720.046 192.127L739.026 185.313C739.026 185.313 741.181 190.187 744.272 203.449C744.756 205.174 745.224 207.097 745.675 209.185C746.21 211.539 746.678 214.126 747.079 216.927Z" fill="#055C5B"/>
<path d="M695.403 168.289C695.303 168.372 690.759 163.763 688.336 161.194L690.775 159.718L704.058 167.991L695.403 168.289Z" fill="#FFD8D7"/>
<path d="M719.762 282.227C719.762 282.227 719.411 284.813 720.396 287.001H726.762C726.762 287.001 726.812 285.111 725.192 282.757C723.571 280.386 719.762 282.227 719.762 282.227Z" fill="#FF7A00"/>
<path d="M732.293 113.93C732.377 113.532 733.463 109.205 740.213 110.134C740.213 110.134 736.838 109.951 736.019 111.294C736.019 111.294 738.575 109.902 740.313 110.797C742.05 111.692 742.568 115.057 742.385 116.102C742.217 117.146 740.597 120.345 739.394 120.428C738.943 120.462 738.425 120.345 737.99 120.18C738.208 120.71 738.425 121.29 738.609 121.937C740.33 127.855 736.637 132.712 734.465 131.734C733.079 131.104 732.226 133.492 732.226 133.492L720.08 119.699C720.097 119.699 727.147 109.951 732.293 113.93Z" fill="#4B4796"/>
<path d="M719.86 150.913C721.447 152.008 723.436 152.903 725.925 153.466C735.264 155.605 738.856 147.764 740.193 142.392C738.923 141.663 737.72 141.514 737.035 141.431C736.367 141.348 735.649 141.298 735.064 141.265C734.011 140.469 732.458 137.204 732.107 132.131L731.672 132.247L724.304 134.253C724.304 134.253 724.638 136.574 724.806 138.779C724.939 140.503 724.956 142.144 724.622 142.542C724.054 142.658 723.703 142.741 723.703 142.741C723.586 142.906 721.464 146.404 719.86 150.913Z" fill="#FFD8D7"/>
<path d="M724.287 134.254C724.287 134.254 724.622 136.575 724.789 138.78C728.966 138.366 730.904 134.42 731.655 132.265L724.287 134.254Z" fill="#FC9492"/>
<path d="M723.051 136.443C723.051 136.443 732.959 135.896 732.524 129.778C732.09 123.661 733.076 119.484 726.727 119.567C720.378 119.65 719.325 122.07 718.975 124.142C718.607 126.231 720.461 136.426 723.051 136.443Z" fill="#FFD8D7"/>
<path d="M719.01 120.726C720.414 118.77 721.583 119.101 722.285 119.599C727.481 116.267 731.273 120.378 731.273 120.378C732.259 124.721 735.617 127.009 735.617 127.009C735.617 127.009 733.897 128.236 729.653 127.473C728.366 127.241 727.163 126.429 726.128 125.401C728.016 128.086 730.455 129.927 730.455 129.927C725.326 128.02 722.836 121.306 722.586 120.61C722.018 121.19 720.915 122.45 720.631 123.611C720.247 125.202 720.263 128.418 719.311 128.385C719.311 128.385 716.922 123.644 719.01 120.726Z" fill="#4B4796"/>
<path d="M721.448 142.245C721.448 142.245 737.587 138.366 744.605 144.102L740 169L741.096 192.625L709.536 185.065C709.536 185.065 710.421 181.998 716.469 173.826C722.517 165.669 719.894 153.684 721.448 142.245Z" fill="#FFD8D7"/>
<path d="M730.857 187.22C730.857 187.22 730.84 187.385 730.807 187.7C730.79 187.833 730.773 187.999 730.756 188.181C730.623 189.441 730.355 191.845 730.038 194.994C729.169 203.217 727.816 216.446 726.88 226.873C726.162 235.03 725.694 241.478 725.945 242.523C726.697 245.639 725.945 282.923 725.945 282.923C723.255 284.199 719.195 282.923 719.195 282.923C719.195 282.923 712.044 249.32 713.047 244.645C714.049 239.97 712.378 235.991 712.378 235.991C706.831 210.362 707.433 196.155 708.536 189.358C708.853 187.385 709.221 186.026 709.488 185.214C709.705 184.517 709.872 184.186 709.872 184.186C722.102 180.92 730.857 187.22 730.857 187.22Z" fill="#0FBAB8"/>
<path d="M741.098 192.624C737.339 194.199 733.58 194.878 730.038 194.994C726.797 195.11 723.706 194.729 720.932 194.132C714.884 192.823 710.273 190.402 708.552 189.358C708.87 187.385 709.237 186.026 709.505 185.213C713.23 182.578 722.436 185.097 729.971 187.899C730.238 187.999 730.506 188.098 730.773 188.197C736.504 190.369 741.098 192.624 741.098 192.624Z" fill="#001B1A"/>
<path d="M746.776 157.944C745.991 163.78 742.884 170.925 741.764 174.771C741.764 174.771 743.619 188.116 741.848 191.779C741.647 192.194 741.397 192.492 741.096 192.625C734.513 195.476 708.884 192.708 707.815 184.502C707.414 181.518 717.572 171.041 718.173 169.764C718.424 169.234 718.675 167.526 717.488 163.995C715.801 169.151 712.677 175.119 709.552 176.13C706.111 177.241 692.494 167.178 692.494 167.178C692.494 167.178 692.411 165.951 694.131 164.791C695.234 164.045 697.774 163.796 697.774 163.796L706.478 167.659C707.564 165.802 710.287 152.971 713.328 147.169C715.617 142.809 721.715 142.179 721.715 142.179C721.715 142.179 724.255 146.174 730.403 145.611C736.552 145.047 737.671 141.317 737.671 141.317C737.671 141.317 743.118 142.03 744.805 143.373C745.089 143.638 747.796 150.302 746.776 157.944Z" fill="#FF7A00"/>
<path d="M741.767 174.77C741.767 174.77 743.621 188.115 741.85 191.779C737.055 189.392 730.807 184.236 732.711 176.179C735.468 164.475 746.779 157.944 746.779 157.944C745.994 163.779 742.869 170.924 741.767 174.77Z" fill="#A75000"/>
<path d="M737.672 165.801C737.672 165.801 730.855 166.779 730.304 167.293C729.753 167.79 727.881 170.741 728.115 171.752C728.349 172.78 728.316 173.824 728.733 173.758C729.151 173.692 730.521 171.089 731.022 170.973C731.54 170.857 731.958 170.509 732.025 170.724C732.092 170.956 730.972 172.051 731.039 172.349C731.089 172.664 731.975 172.299 732.359 171.686C732.743 171.089 733.729 170.791 733.879 170.409C734.03 170.028 734.698 168.785 735.617 168.851C736.536 168.917 737.672 165.801 737.672 165.801Z" fill="#FFD8D7"/>
<path d="M744.302 165.536L737.67 165.801L735.397 168.868L744.436 169.166L744.302 165.536Z" fill="#FFD8D7"/>
<path d="M737.671 141.332C737.671 141.332 745.591 142.26 747.763 145.626C750.519 149.886 760.243 163.994 760.043 168.271C760.043 168.271 753.978 170.675 737.671 169.381C737.671 169.381 737.371 166.928 740.812 164.972C740.812 164.972 749.567 163.778 750.536 162.933L744.037 156.086L737.671 141.332Z" fill="#FF7A00"/>
<path d="M688.821 150.964L694.234 150.45C694.668 150.417 695.086 150.649 695.253 151.047L699.346 160.811C699.597 161.424 699.196 162.104 698.528 162.17L692.897 162.701C692.463 162.751 692.045 162.485 691.878 162.087L688.019 152.307C687.751 151.693 688.169 151.03 688.821 150.964Z" fill="#24DFE6"/>
<path d="M688.319 161.192C688.319 161.192 686.882 158.739 686.999 158.142C687.099 157.545 688.586 154.743 689.338 154.462C690.691 153.964 692.596 153.666 692.078 155.075C691.727 156.003 690.357 157.363 690.608 157.794C690.842 158.225 690.758 159.717 690.758 159.717L688.319 161.192Z" fill="#FFD8D7"/>
</g>
<path d="M342.767 289.189L293 204.47H324.532L343.907 243.98L361.003 204.47H390.635L343.527 289.189H342.767Z" fill="white"/>
<path d="M473.935 280.071C470.262 282.984 465.64 285.326 460.068 287.099C454.623 288.872 449.241 289.759 443.922 289.759C429.739 289.759 418.342 285.896 409.731 278.172C401.247 270.447 397.004 259.683 397.004 245.88C397.004 236.635 399.094 228.784 403.273 222.326C407.452 215.741 412.897 210.739 419.609 207.32C426.447 203.901 433.602 202.191 441.073 202.191C448.545 202.191 455.003 203.204 460.448 205.23C466.02 207.256 470.769 209.916 474.695 213.208L461.778 230.304C460.005 228.911 457.536 227.518 454.37 226.125C451.331 224.605 447.721 223.845 443.543 223.845C438.097 223.845 433.412 225.935 429.486 230.114C425.56 234.166 423.598 239.421 423.598 245.88C423.598 252.085 425.624 257.34 429.676 261.646C433.855 265.951 439.364 268.104 446.202 268.104C452.027 268.104 456.839 266.521 460.638 263.355L473.935 280.071Z" fill="white"/>
<path d="M494.358 168H520.951V287.479H494.358V168Z" fill="white"/>
<path d="M575.121 291.468C567.65 291.468 561.381 289.189 556.316 284.63C551.251 279.944 548.591 273.929 548.338 266.585V204.47H574.931V256.707C575.184 260.379 576.134 263.355 577.78 265.635C579.427 267.788 582.213 268.864 586.138 268.864C592.09 268.864 596.776 266.015 600.195 260.316C603.614 254.491 605.323 247.146 605.323 238.282V204.47H631.917V287.479H607.793L605.893 274.183C603.107 279.375 599.118 283.554 593.926 286.719C588.734 289.885 582.466 291.468 575.121 291.468Z" fill="white"/>
<path d="M686.24 289.189C679.402 289.189 673.006 287.986 667.055 285.58C661.229 283.174 656.291 279.818 652.238 275.512L663.256 260.886C667.308 264.558 671.044 267.218 674.463 268.864C678.009 270.384 681.174 271.143 683.96 271.143C687.253 271.143 689.975 270.637 692.128 269.624C694.281 268.611 695.357 266.964 695.357 264.685C695.357 262.532 694.471 260.823 692.698 259.556C691.052 258.29 688.899 257.277 686.24 256.517C683.58 255.631 680.731 254.744 677.692 253.858C670.094 251.452 664.585 247.969 661.166 243.41C657.874 238.725 656.227 233.66 656.227 228.214C656.227 224.035 657.304 219.856 659.457 215.678C661.736 211.372 665.282 207.826 670.094 205.04C675.033 202.128 681.364 200.671 689.089 200.671C696.054 200.671 701.942 201.368 706.755 202.761C711.567 204.154 716.125 206.433 720.431 209.599L710.364 225.175C707.958 223.276 705.235 221.693 702.196 220.426C699.283 219.033 696.56 218.274 694.028 218.147C690.609 218.02 687.949 218.653 686.05 220.046C684.15 221.313 683.201 222.832 683.201 224.605C683.074 227.011 683.96 228.911 685.86 230.304C687.886 231.697 690.419 232.773 693.458 233.533C696.497 234.293 699.473 235.179 702.386 236.192C708.337 238.218 713.086 241.131 716.632 244.93C720.178 248.602 721.951 253.541 721.951 259.746C721.951 264.812 720.621 269.624 717.962 274.183C715.429 278.615 711.503 282.224 706.185 285.01C700.993 287.796 694.344 289.189 686.24 289.189Z" fill="white"/>
<path d="M947.908 204.47L949.998 223.466C952.404 218.653 955.696 214.538 959.875 211.119C964.054 207.573 968.17 204.914 972.222 203.141C976.275 201.241 979.377 200.291 981.53 200.291L980.2 226.885C973.995 226.125 968.676 227.138 964.244 229.924C959.812 232.71 956.393 236.382 953.987 240.941C951.581 245.5 950.378 250.185 950.378 254.997V287.479H923.975V204.47H947.908Z" fill="white"/>
<path fill-rule="evenodd" clip-rule="evenodd" d="M818.257 247.15C818.67 231.871 827.646 204.803 858.312 202.965C900.365 200.446 902.43 240.5 902.843 249.172L844.061 254.954C844.336 258.808 847.741 264.411 858.312 267.384C868.884 270.357 878.409 266.42 881.85 264.08L893.825 283.488C885.979 287.618 866.571 294.638 851.705 289.682C833.123 283.488 819.429 268.993 818.257 247.15ZM843.793 240.592L880.922 238.146C881.197 233.19 875.59 221.597 860.311 222.836C849.602 223.705 843.793 232.334 843.793 240.592Z" fill="white"/>
<path d="M782.746 168.164H756.731V203.264H743.93V223.498H756.731C756.593 228.453 756.813 238.116 757.144 265.205C757.474 292.293 787.426 293.147 802.567 286.677V266.856C796.822 270.591 792.533 270.896 789.431 269.651C782.472 266.86 782.746 257.29 782.746 249.792V223.498H802.567V203.264H782.746V168.164Z" fill="white"/>
<g clip-path="url(#clip2)">
<path d="M245.443 31.6821C244.953 31.7129 243.636 32.1435 241.706 35.8039C239.256 40.4794 235.642 54.598 235.642 54.598L246.392 58.6275L247.771 55.6746L250.037 32.974C250.037 32.974 245.565 31.6821 245.443 31.6821Z" fill="#0FBAB8"/>
<path d="M259.621 29.6521C256.559 29.6521 248.963 30.5441 245.411 31.6822C245.411 31.6822 242.807 54.0444 247.738 71.0544C248.841 74.8686 246.819 86.8341 246.819 86.8341L278.64 86.4035C278.64 86.4035 274.873 57.4587 276.282 52.7833C277.691 48.1078 277.722 31.8052 277.722 31.8052C277.722 31.8052 277.507 31.7745 270.555 30.5748C267.4 30.0212 262.898 29.6213 259.621 29.6521Z" fill="#24DFE6"/>
<path d="M263.329 128.359C263.329 128.359 262.624 136.511 261.338 138.787C260.052 141.032 261.399 144.877 261.46 145.431C261.522 145.954 264.186 146.723 268.413 146.261C272.639 145.8 272.578 144.816 272.241 143.247C271.904 141.678 269.638 139.617 269.515 138.11C269.393 136.603 270.801 131.189 270.801 131.189L263.329 128.359Z" fill="#FFE9E9"/>
<path d="M250.433 80.0983C250.433 80.0983 228.443 78.868 223.543 81.8516C218.643 84.8353 227.034 99.4769 227.034 99.4769C227.034 99.4769 242.317 98.7694 272.27 100.492C279.375 100.892 279.987 81.9132 278.64 80.3444C277.354 78.7757 250.433 80.0983 250.433 80.0983Z" fill="#0C1F6C"/>
<path d="M268.964 146.876C273.313 146.415 272.762 144.262 272.425 142.632C272.21 141.617 270.955 140.417 270.22 139.279C269.822 139.586 269.209 140.14 267.31 140.694C265.35 141.278 262.655 140.109 260.94 139.402C260.327 141.678 260.297 144.6 260.358 145.031C260.419 145.585 264.615 147.338 268.964 146.876Z" fill="#0FBAB8"/>
<path d="M266.543 95.8779C265.685 102.553 261.336 135.773 261.336 135.773L271.413 137.034C271.413 137.034 283.816 93.6939 283.173 87.0499C282.53 80.4058 277.905 79.8521 277.905 79.8521C277.905 79.8521 268.871 78.2219 266.543 95.8779Z" fill="#111E54"/>
<path d="M278.15 34.2968C275.179 33.1895 273.709 60.1041 273.311 71.2083C268.043 71.7312 258.855 71.2083 256.558 71.0545C255.486 70.9622 253.006 70.0702 251.934 69.9164C250.831 69.7626 249.851 69.7011 249.3 69.7934C249.116 69.8241 243.603 72.0696 243.144 72.5925C242.562 73.2077 241 74.7457 241.245 75.4224C241.521 76.0991 244.277 73.5461 244.277 73.5461L245.625 72.7771C243.94 74.4381 240.724 76.5913 241.184 77.391C241.643 78.16 244.522 75.9453 246.605 74.4688C244.828 76.0683 242.623 78.9597 243.144 79.3904C243.603 79.7902 246.084 76.4682 248.779 75.5147C249.759 75.1455 250.77 76.1299 251.536 76.2529C252.118 76.3452 253.006 76.5297 253.557 76.3759L256.436 75.5454C257.416 75.6377 257.447 76.2221 258.427 76.4375C259.59 76.6835 261.489 76.9296 262.959 77.2987C271.443 79.3904 274.26 80.3439 276.864 80.3439C284.704 80.3132 285.163 36.9729 278.15 34.2968Z" fill="#FFE9E9"/>
<path d="M283.786 59.6117C284.337 48.2614 284.276 34.2658 277.936 31.8665C275.425 30.913 271.015 36.6035 271.811 59.827C275.18 60.1038 280.172 60.3499 283.786 59.6117Z" fill="#0FBAB8"/>
<path d="M233.834 135.342C233.834 135.342 234.722 138.172 233.129 140.048C231.568 141.925 225.013 143.77 224.156 144.785C223.298 145.801 223.36 146.662 223.36 146.662L241.736 146.139L241.521 140.571L240.664 136.573L233.834 135.342Z" fill="#FFE9E9"/>
<path d="M231.997 140.971C231.997 140.971 236.714 142.878 239.011 141.74C241.277 140.602 241.216 140.295 241.89 140.725C242.564 141.156 242.778 146.385 242.778 146.385L222.105 147C220.666 146.969 219.931 145.893 221.094 145.001C221.891 144.386 222.809 143.955 223.361 143.647C224.984 142.694 231.997 140.971 231.997 140.971Z" fill="#0FBAB8"/>
<path d="M234.539 85.3275C233.131 82.3131 229.884 78.4066 224.218 80.7751C218.797 83.0206 217.327 88.5265 219.042 94.1863C220.757 99.8461 232.028 133.066 232.396 137.619L241.4 137.68C241.4 137.68 239.776 111.381 239.378 105.014C238.98 98.8925 236.989 90.5259 234.539 85.3275Z" fill="#111E54"/>
<path d="M219.961 54.7212H250.006C250.802 54.7212 251.506 55.2133 251.813 55.9516L261.062 78.6829H277.631C278.09 78.6829 278.458 79.052 278.458 79.5134C278.458 79.9748 278.09 80.3439 277.631 80.3439H230.466C229.18 80.3439 227.985 79.5749 227.465 78.3753L218.154 57.4588C217.572 56.1977 218.522 54.7212 219.961 54.7212Z" fill="black"/>
<path d="M236.132 67.9782C236.346 68.9932 237.204 69.67 238.092 69.5162C238.98 69.3316 239.531 68.378 239.317 67.3322C239.102 66.3171 238.214 65.6404 237.326 65.7942C236.469 65.9788 235.917 66.9323 236.132 67.9782Z" fill="white"/>
<path d="M252.487 2.30692C253.406 1.99932 254.294 1.66097 255.152 1.23033C256.132 0.768938 257.387 0.215265 258.184 0.0922272C259.868 -0.153849 262.747 -5.14757e-05 264.34 1.75324C266.33 3.90641 269.852 2.15312 269.148 13.4419C268.352 26.2379 261.246 24.8537 261.093 24.6384C260.909 24.423 254.784 16.4563 254.784 16.4563C254.784 16.4563 252.64 21.1933 252.64 21.0087C252.579 20.8242 241.615 5.99807 252.487 2.30692Z" fill="#A83F3F"/>
<path d="M257.878 25.5605L257.266 30.1437C257.266 30.1437 255.888 36.7263 257.664 38.0182C259.44 39.2793 265.167 29.9592 265.167 29.9592L264.555 18.3628L257.878 25.5605Z" fill="#FFE9E9"/>
<path d="M264.738 22.1155C263.298 26.0834 259.807 28.5135 257.357 29.467L257.877 25.5913L264.554 18.3628L264.738 22.1155Z" fill="#EA8888"/>
<path d="M258.246 5.7524C254.509 5.13721 251.171 8.15165 251.263 11.9351C251.294 13.5653 251.447 15.5955 251.784 17.8102C252.58 23.07 256.163 27.7147 258.521 27.3149C260.91 26.8842 266.852 22.3318 265.81 14.8265C265.167 10.1818 262.166 6.39835 258.246 5.7524Z" fill="#FFE9E9"/>
<path d="M264.156 15.7185C264.37 16.8873 265.289 17.6871 266.238 17.5333C267.188 17.3795 267.77 16.3029 267.586 15.134C267.372 13.9652 266.453 13.1654 265.503 13.3192C264.585 13.473 263.972 14.5496 264.156 15.7185Z" fill="#FFE9E9"/>
<path d="M265.503 13.3187C265.503 13.3187 262.624 14.0261 261.583 12.1806C260.511 10.335 256.713 6.33626 251.874 7.99727C247.036 9.65829 256.132 3.96777 256.53 3.96777C256.928 3.96777 261.552 3.93701 261.552 3.93701C261.552 3.93701 265.136 6.88993 265.258 7.22829C265.381 7.53588 266.422 11.0732 266.422 11.0732L265.503 13.3187Z" fill="#A83F3F"/>
<path d="M260.266 21.0391L255.059 22.0541C255.059 22.0541 255.549 24.0227 257.877 23.6536C260.664 23.1922 260.266 21.0391 260.266 21.0391Z" fill="white"/>
</g>
<g clip-path="url(#clip3)">
<path d="M969.527 237.914C969.527 237.914 982.986 243.799 985.431 243.699C987.876 243.586 1002.93 239.091 1002.93 239.091L1002.55 241.695C1002.55 241.695 990.92 248.407 986.866 248.783C982.861 249.158 969.19 245.176 967.868 244.337C966.545 243.498 965.685 238.765 969.527 237.914Z" fill="#6C2F0C"/>
<path d="M967.505 216.25C967.505 216.25 962.54 215.299 960.058 217.114C955.58 220.395 955.33 231.727 953.659 233.418C951.975 235.108 947.933 234.382 947.572 243.11C947.21 251.838 949.181 252.564 946.836 256.471C944.491 260.365 947.834 264.272 947.834 264.272C947.834 264.272 946.461 262.118 947.048 260.566C947.048 260.566 947.621 263.997 949.792 264.798C951.962 265.6 952.287 266.188 952.624 267.365C952.624 267.365 971.123 257.848 971.147 251.099C971.172 244.35 974.79 237.663 973.006 234.733C973.006 234.733 973.792 235.985 973.892 237.375C973.892 237.375 974.965 235.321 973.106 233.418C971.26 231.502 975.276 227.558 974.678 222.975C974.278 219.832 972.083 216.388 967.505 216.25Z" fill="#FBC5C5"/>
<path d="M971.159 244.338C969.974 245.164 968.49 245.841 966.631 246.266C959.658 247.882 956.976 241.959 955.979 237.902C956.927 237.351 957.825 237.238 958.349 237.175C958.848 237.113 959.384 237.075 959.821 237.05C960.606 236.449 961.766 233.982 962.028 230.15L962.353 230.238L967.854 231.753C967.854 231.753 967.604 233.506 967.48 235.172C967.38 236.474 967.367 237.714 967.617 238.014C968.041 238.102 968.303 238.164 968.303 238.164C968.378 238.302 969.962 240.932 971.159 244.338Z" fill="#6C2F0C"/>
<path d="M967.854 231.765C967.854 231.765 967.605 233.518 967.48 235.183C964.362 234.87 962.915 231.89 962.353 230.262L967.854 231.765Z" fill="#6C2F0C"/>
<path d="M968.777 233.406C968.777 233.406 961.38 232.992 961.705 228.372C962.029 223.751 961.293 220.596 966.033 220.658C970.773 220.721 971.559 222.549 971.821 224.114C972.095 225.692 970.711 233.393 968.777 233.406Z" fill="#6C2F0C"/>
<path d="M971.796 221.547C970.749 220.069 969.875 220.32 969.352 220.696C965.472 218.179 962.641 221.284 962.641 221.284C961.905 224.565 959.397 226.293 959.397 226.293C959.397 226.293 960.682 227.219 963.838 226.643C964.799 226.468 965.697 225.855 966.47 225.078C965.06 227.107 963.239 228.497 963.239 228.497C967.069 227.044 968.927 221.973 969.115 221.434C969.539 221.873 970.362 222.824 970.574 223.701C970.861 224.903 972.083 226.781 972.794 226.756C972.807 226.769 973.356 223.751 971.796 221.547Z" fill="#FBC5C5"/>
<path d="M953.871 259.439C953.198 256.008 951.027 242.321 953.198 237.913C953.984 236.335 957.052 236.185 960.42 236.323C961.468 236.999 965.46 239.566 967.094 239.253C967.106 239.253 967.144 239.241 967.181 239.228C967.955 239.04 968.242 238.489 967.605 238.026C967.605 238.026 969.277 237.863 971.348 238.251C972.52 238.477 975.676 240.105 975.676 240.105C975.676 240.105 974.092 242.985 971.747 243.974C972.146 247.555 971.547 249.133 967.855 257.385C964.736 264.372 968.279 270.658 968.279 270.658C968.279 270.658 949.892 285.497 949.792 277.946C949.705 272.261 954.72 263.809 953.871 259.439Z" fill="#0FBAB8"/>
<path d="M969.188 286.799C970.186 286.687 971.085 286.136 971.646 285.297C971.733 285.159 971.833 285.021 971.933 284.871C974.028 281.69 974.839 271.948 979.542 261.567C980.69 259.038 984.806 258.587 985.929 255.732C985.929 255.732 988.685 246.478 980.64 246.203C972.594 245.927 959.085 271.961 958.872 274.691C958.66 277.333 953.546 288.577 969.188 286.799Z" fill="#084C94"/>
<path d="M1001.17 286.599H989.709C989.709 286.599 989.285 284.758 990.033 283.518C990.694 282.416 990.445 281.79 989.946 280.876C990.47 281.089 991.131 281.289 991.879 281.239C992.453 281.202 993.052 280.951 993.588 280.638C994.087 281.202 996.195 283.606 996.856 284.082C997.605 284.608 1000.95 284.42 1001.17 286.599Z" fill="#BBE1FF"/>
<path d="M955.081 241.495C955.081 241.495 953.584 255.119 963.264 257.974C972.931 260.829 975.676 245.439 967.867 244.337C960.058 243.223 955.081 241.495 955.081 241.495Z" fill="#008886"/>
<path d="M986.191 248.882C986.877 254.079 989.571 270.458 994.324 278.459C995.858 281.039 990.469 282.479 990.432 282.479C989.708 282.291 988.498 281.127 987.949 280.626C984.095 277.132 976.261 267.252 976.261 259.326C976.261 255.456 976.199 248.081 978.993 246.203C980.715 245.05 985.916 246.829 986.191 248.882Z" fill="#084C94"/>
<path d="M962.353 286.599C962.353 286.599 962.778 286.011 963.514 284.884C964.399 283.544 965.372 280.902 966.557 277.533C967.805 273.99 969.277 269.62 971.123 265.074C971.696 263.672 972.295 262.257 972.931 260.842C974.079 258.312 977.235 258.663 978.358 255.808C978.358 255.808 982.736 245.903 974.69 245.64C966.644 245.364 951.339 272.124 950.466 274.716C949.493 277.533 944.803 289.317 962.353 286.599Z" fill="#0C1F6C"/>
<path d="M992.765 286.599H981.301C981.301 286.599 980.877 284.758 981.626 283.518C982.287 282.416 982.037 281.79 981.538 280.876C982.062 281.089 982.723 281.289 983.472 281.239C984.046 281.202 984.644 280.951 985.181 280.638C985.68 281.202 987.788 283.606 988.449 284.082C989.197 284.608 992.54 284.42 992.765 286.599Z" fill="#D1EBFF"/>
<path d="M966.557 277.521C967.804 273.977 969.276 269.607 971.122 265.061C970.636 261.618 969.6 258.613 967.854 257.398C967.854 257.398 963.613 270.571 966.557 277.521Z" fill="black"/>
<path d="M979.505 248.52C980.191 253.716 981.164 270.471 985.916 278.46C987.45 281.039 982.062 282.479 982.024 282.479C981.301 282.292 980.091 281.127 979.542 280.626C975.688 277.133 967.854 267.253 967.854 259.326C967.854 255.457 972.369 248.394 975.176 246.516C976.885 245.364 979.23 246.454 979.505 248.52Z" fill="#0C1F6C"/>
<path d="M1004.3 232.391L992.565 231.139C992.228 231.101 991.904 231.302 991.779 231.627L987.575 242.697C987.388 243.185 987.737 243.711 988.249 243.723L999.887 244.199C1000.2 244.212 1000.5 244.024 1000.61 243.736L1004.93 233.443C1005.11 232.98 1004.8 232.454 1004.3 232.391Z" fill="#EC5900"/>
<path d="M1005.33 232.504L993.588 231.252C993.251 231.214 992.927 231.414 992.802 231.74L988.598 242.809C988.411 243.298 988.761 243.824 989.272 243.836L1000.91 244.312C1001.22 244.325 1001.52 244.137 1001.63 243.849L1005.94 233.556C1006.14 233.08 1005.83 232.554 1005.33 232.504Z" fill="#FF7A00"/>
<path d="M998.815 237.676C998.965 237.275 998.753 236.962 998.366 236.962C997.967 236.962 997.543 237.288 997.393 237.676C997.256 238.077 997.456 238.39 997.842 238.39C998.241 238.39 998.678 238.064 998.815 237.676Z" fill="#EC5900"/>
<path d="M1004.98 233.543C1005.05 233.355 1004.95 233.192 1004.75 233.192C1004.55 233.192 1004.34 233.355 1004.28 233.543C1004.2 233.743 1004.3 233.894 1004.5 233.894C1004.7 233.894 1004.9 233.743 1004.98 233.543Z" fill="#EC5900"/>
<path d="M955.979 237.914C955.979 237.914 972.245 243.924 974.69 243.799C976.274 243.724 989.397 239.091 989.397 239.091L990.57 241.332C990.57 241.332 977.796 249.572 974.279 249.534C967.343 249.459 955.642 245.176 954.32 244.337C952.998 243.498 952.137 238.765 955.979 237.914Z" fill="#6C2F0C"/>
<path d="M989.384 239.091C989.384 239.091 990.557 237.275 991.742 237.213C992.914 237.162 994.948 238.014 995.634 238.152C996.332 238.289 998.303 238.928 997.717 239.892C997.131 240.856 994.411 241.069 993.239 240.856C992.066 240.644 990.569 241.332 990.569 241.332L989.384 239.091Z" fill="#6C2F0C"/>
<path d="M991.417 237.275C991.417 237.275 993.288 236.411 993.812 236.26C994.349 236.098 994.236 236.26 994.074 236.774C993.912 237.287 992.952 237.763 992.952 237.926C992.964 238.064 991.417 237.275 991.417 237.275Z" fill="#6C2F0C"/>
<path d="M1004.12 238.126C1004.12 238.126 1002.94 236.26 1002.56 236.185C1001.38 235.947 1001.38 237.5 1001.63 238.502C1001.9 239.579 1002.81 240.593 1003.06 240.505C1003.29 240.405 1004.39 239.115 1004.12 238.126Z" fill="#6C2F0C"/>
<path d="M1004.16 238.501C1004.16 238.501 1004.53 240.593 1002.55 241.695L1004.16 238.501Z" fill="#6C2F0C"/>
<path d="M970.161 230.75C970.161 230.75 969.463 230.475 967.492 230.637C967.492 230.637 967.592 231.414 969.051 231.489C969.874 231.526 970.161 230.75 970.161 230.75Z" fill="white"/>
<path d="M964.349 240.868C964.349 240.868 962.89 245.489 957.9 246.541C957.9 246.541 949.655 243.986 953.759 238.351C953.759 238.351 957.826 235.321 964.349 240.868Z" fill="#0FBAB8"/>
</g>
<g clip-path="url(#clip4)">
<path d="M20.5576 279.68C20.5576 279.68 20.1601 285.907 18.9266 285.987C18.7622 286 12.6359 286 12.6359 286L4.82395 285.96C4.82395 285.96 4.87878 284.137 7.15384 283.738C9.44262 283.352 13.2664 281.795 14.6506 278.855C16.1034 275.781 20.5576 279.68 20.5576 279.68Z" fill="#FF7521"/>
<path d="M24.7234 206.088C24.7234 206.088 21.0366 208.124 19.995 208.124C18.9672 208.124 14.9104 207.365 13.7729 207.924C12.6491 208.483 10.5933 210.745 10.2095 211.477C9.52426 212.807 12.9917 212.222 14.6226 211.091C14.8556 210.931 15.1571 210.864 15.4449 210.931C16.2946 211.117 18.0626 211.423 18.9123 211.117C20.0636 210.705 26.0939 210.252 26.0939 210.252L24.7234 206.088Z" fill="#FFE9E9"/>
<path d="M52.8065 178.333C52.8065 178.333 48.9827 204.731 42.6509 207.099C39.5261 208.27 25.7113 210.905 21.6271 211.171C21.6271 211.171 20.6266 210.386 20.8733 207.179C20.8733 207.179 35.346 202.017 37.4018 199.209C40.4581 195.031 35.4968 182.152 39.3479 178.227C43.1717 174.315 49.6406 172.625 52.8065 178.333Z" fill="#C21B1B"/>
<path d="M51.5181 233.95C50.408 235.786 49.106 237.515 47.7766 239.139C43.665 244.181 39.1834 248.333 38.4022 252.258C38.2514 253.043 38.0047 253.881 37.6758 254.772C37.3469 255.677 36.9494 256.622 36.4835 257.593C34.7429 261.279 32.1252 265.403 29.5212 269.142C25.0122 275.622 20.7773 281.024 20.7773 281.024L13.0064 280.704C13.3217 279.946 16.7068 271.005 21.2433 260.068C23.0798 255.624 25.0396 250.914 26.9309 246.35C27.1776 245.738 27.438 245.139 27.6847 244.541C28.2603 243.144 28.836 241.773 29.3842 240.443C33.6328 230.171 37.0317 222.001 37.0317 222.001C37.0317 222.001 54.0398 215.748 55.8078 219.806C57.2743 223.159 56.0956 226.432 51.5181 233.95Z" fill="#ACB5D9"/>
<path d="M38.5381 261.904C38.5381 261.904 43.938 265.271 43.4172 266.375C43.3487 266.521 40.3609 271.71 40.3609 271.71L36.5098 278.31C36.5098 278.31 34.8925 277.378 35.66 275.25C36.4275 273.121 36.8935 269.116 34.92 266.521C32.8642 263.78 38.5381 261.904 38.5381 261.904Z" fill="#FF7521"/>
<path d="M35.8942 267.825C35.8942 267.825 39.2657 264.938 39.8688 262.809C39.8688 262.809 25.958 246.629 22.9428 242.997C22.8058 242.837 22.8332 242.651 23.025 242.452C25.3001 239.963 50.6136 234.881 53.9303 229.891C55.0678 228.175 55.712 226.538 56.0683 225.101C56.8221 222.054 56.2191 219.952 56.2191 219.952L30.933 219.247C30.933 219.247 9.88174 231.967 7.49703 240.642C5.11232 249.317 35.8942 267.825 35.8942 267.825Z" fill="#A19FD2"/>
<path d="M23.0239 242.452C25.299 239.963 50.6125 234.881 53.9292 229.891C55.0667 228.175 55.7109 226.538 56.0672 225.101V222.001L45.3223 220.365C45.3223 220.365 42.2798 229.466 33.248 232.885C24.7919 236.065 23.1884 241.746 23.0239 242.452Z" fill="#4369CA"/>
<path d="M37.8529 176.67C42.9649 177.948 51.4484 173.357 51.4484 173.357C51.4484 173.357 48.1592 171.215 46.9394 166.492C46.8709 166.252 46.8161 166.013 46.7749 165.76C46.2404 165.653 45.2263 165.441 44.1435 165.214L40.2376 168.607C40.2376 168.607 40.3335 170.018 40.8132 172.439C40.8954 172.865 40.9913 173.317 41.101 173.796C39.0041 175.074 37.8529 176.67 37.8529 176.67Z" fill="#FFE9E9"/>
<path d="M56.8629 197.254C56.1365 206.82 57.0959 221.363 56.2599 223.891C55.5472 226.06 47.3652 224.769 44.1033 224.051C42.8973 223.785 41.4308 223.399 39.9232 222.946C35.7157 221.682 31.1245 219.873 30.6311 218.529C30.6174 218.476 30.59 218.423 30.59 218.369C30.5489 218.17 30.5489 217.997 30.6037 217.811C30.7682 217.132 31.3986 216.387 31.4808 214.697C31.5631 212.808 31.5494 210.572 31.6316 208.177C31.6316 207.911 31.6453 207.619 31.6727 207.339V207.246C31.6727 207.193 31.6727 207.14 31.6727 207.086C31.7412 204.412 31.892 201.605 32.0565 198.824C32.1661 197.081 32.2894 195.338 32.4265 193.688C32.7965 189.404 33.2899 185.598 33.9478 183.177C35.0168 179.252 37.3741 176.684 39.5258 174.808L41.0745 173.517C42.815 173.89 44.8571 173.637 46.721 172.785C48.7357 171.854 49.421 171.202 49.7773 171.441C54.396 174.914 57.7263 185.558 56.8629 197.254Z" fill="#FBC5C5"/>
<path d="M39.9362 222.933C35.7287 221.669 31.1374 219.859 30.644 218.516C30.6303 218.462 30.6029 218.409 30.6029 218.356C30.6029 218.17 30.6029 217.983 30.6166 217.797C30.7811 217.119 31.4115 216.373 31.4938 214.684C31.576 212.794 31.5623 210.559 31.6445 208.164C31.6445 207.898 31.6582 207.605 31.6856 207.326V207.233C31.6856 207.18 31.6856 207.126 31.6856 207.073L48.6938 186.011C48.6938 186.011 60.1377 209.162 39.9362 222.933Z" fill="#C21B1B"/>
<path d="M40.2382 168.607C40.2382 168.607 40.3341 170.017 40.8138 172.439C44.6238 171.241 46.3644 167.902 46.94 166.478C46.8715 166.238 46.8167 165.999 46.7755 165.746C46.241 165.64 45.2269 165.427 44.1441 165.201L40.2382 168.607Z" fill="#FBC5C5"/>
<path d="M39.7171 170.749C39.7171 170.749 48.0362 169.405 47.0905 164.389C46.1449 159.36 46.5835 155.807 41.2384 156.459C35.8934 157.111 35.2218 159.2 35.1122 160.956C35.0025 162.699 37.538 170.975 39.7171 170.749Z" fill="#FFE9E9"/>
<path d="M6.96414 213.679L6.23425 213.91L-0.00801324 195.259L0.721873 195.028L6.96414 213.679Z" fill="#FBFBFF"/>
<path d="M27.4363 213.469L6.23859 213.908L6.21138 212.671L27.4091 212.232L27.4363 213.469Z" fill="#FBFBFF"/>
<path d="M27.0123 214.444C27.0123 214.444 20.2008 216.187 17.6517 216.001C15.1025 215.814 12.9782 214.644 12.6492 214.018C12.334 213.406 11.6488 212.315 13.3893 212.515C15.1299 212.714 17.5009 213.074 17.5694 212.754C17.638 212.435 16.1578 212.461 16.1578 212.461C16.1578 212.461 15.7055 211.823 16.2811 211.796C16.843 211.77 18.5014 211.331 19.1181 211.637C19.7349 211.929 20.2968 213.034 20.749 212.994C21.2013 212.954 26.4504 210.692 26.4504 210.692L27.0123 214.444Z" fill="#FFE9E9"/>
<path d="M51.1207 179.411C51.1207 179.411 50.3121 206.061 44.2818 209.095C41.3077 210.585 27.8766 214.696 23.8473 215.401C23.8473 215.401 22.7646 214.723 22.6412 211.503C22.6412 211.503 36.4424 204.824 38.1692 201.817C40.7321 197.333 34.3455 185.065 37.717 180.754C41.0884 176.444 47.3243 174.075 51.1207 179.411Z" fill="#FBC5C5"/>
<path d="M46.9403 166.478C46.9403 166.478 47.0362 164.762 45.9398 163.777C45.9398 163.777 46.3236 162.048 45.6109 161.768C44.9119 161.489 44.7612 162.939 44.4323 162.713C44.1033 162.487 42.678 161.409 42.0613 159.812C41.4445 158.216 35.8117 160.145 35.1538 160.438C34.496 160.73 32.3854 159.666 31.9742 158.814C31.9742 158.814 33.1529 157.91 33.6737 157.218C34.1945 156.539 37.8949 151.922 43.048 153.239C48.2286 154.543 48.9276 156.925 48.626 158.974C48.3382 161.023 49.0509 165.8 46.9403 166.478Z" fill="#4B4796"/>
</g>
<path d="M378.329 157.436C378.329 157.436 380.882 161.24 382.326 169.231C383.602 176.232 384.71 178.821 386.548 180.249C388.385 181.678 398.623 185.921 398.623 185.921L397.851 187.731C397.851 187.731 382.845 185.666 381.162 183.134C379.479 180.603 373.056 165.667 373.547 162.216C374.066 158.779 378.329 157.436 378.329 157.436Z" fill="#FCA09E"/>
<path d="M415.073 240.926C414.933 242.397 416.981 242.765 419.337 242.878C421.693 242.991 420.978 243.486 424.217 244.08C427.457 244.674 428.747 243.783 428.986 243.345C429.196 242.949 427.696 242.341 426.083 241.648C425.886 241.563 425.676 241.478 425.48 241.379C423.67 240.573 422.661 238.946 421.258 237.433C419.926 236.004 418.664 231.408 418.664 231.408L414.274 230.46C414.274 230.46 415.508 234.59 415.943 236.344C416.195 237.376 415.817 238.536 415.494 239.427C415.298 239.908 415.116 240.403 415.073 240.926Z" fill="#FDB3B1"/>
<path d="M419.336 242.878C421.692 242.991 420.977 243.486 424.217 244.08C427.456 244.674 428.747 243.783 428.985 243.345C429.195 242.949 427.695 242.34 426.082 241.647L426.054 241.676C426.054 241.676 423.782 242.453 421.159 241.732C419.014 241.152 416.952 239.851 415.479 239.441C415.297 239.922 415.129 240.417 415.073 240.926C414.933 242.397 416.98 242.75 419.336 242.878Z" fill="#FF7A00"/>
<path d="M371.316 188.368C371.316 188.368 400.515 186.148 406.012 189.655C411.51 193.149 420.331 233.911 420.331 233.911C420.331 233.911 419.784 234.349 418.578 234.476C417.442 234.604 414.96 233.925 414.96 233.925C414.96 233.925 402.282 215.694 401.398 211.097C400.501 206.5 400.725 202.399 398.691 202.3C396.658 202.186 371.33 205.411 367.487 198.594C363.658 191.791 366.828 185.044 366.828 185.044L371.316 188.368Z" fill="#A19FD2"/>
<path d="M403.896 245.65C403.755 247.121 405.803 247.489 408.159 247.602C410.515 247.715 409.8 248.21 413.04 248.804C416.279 249.398 417.569 248.507 417.808 248.068C418.018 247.672 416.518 247.064 414.905 246.371C414.708 246.286 414.498 246.201 414.302 246.102C412.493 245.296 411.483 243.67 410.08 242.156C408.748 240.728 407.486 236.131 407.486 236.131L403.096 235.184C403.096 235.184 404.33 239.314 404.765 241.067C405.017 242.1 404.639 243.26 404.316 244.151C404.12 244.632 403.952 245.127 403.896 245.65Z" fill="#FDB3B1"/>
<path d="M408.159 247.601C410.515 247.715 409.8 248.21 413.04 248.804C416.279 249.398 417.57 248.507 417.808 248.068C418.018 247.672 416.518 247.064 414.905 246.371L414.877 246.399C414.877 246.399 412.605 247.177 409.982 246.456C407.837 245.876 405.775 244.575 404.302 244.165C404.12 244.645 403.952 245.14 403.896 245.65C403.769 247.121 405.803 247.488 408.159 247.601Z" fill="#FF7A00"/>
<path d="M365.594 190.192C365.594 190.192 391.539 191.437 396.896 195.143C402.254 198.848 409.49 239.921 409.49 239.921C409.49 239.921 408.929 240.346 407.709 240.43C406.573 240.515 404.119 239.737 404.119 239.737C404.119 239.737 392.156 221.011 391.441 216.386C390.725 211.761 391.104 207.674 389.071 207.49C387.037 207.306 361.597 209.527 358.034 202.568C354.472 195.609 365.594 190.192 365.594 190.192Z" fill="#ACB5D9"/>
<path d="M374.837 132.613C373.687 131.849 372.257 131.68 371.247 131.666C371.527 131.411 372.032 131.354 372.032 131.354C371.415 131.213 369.985 131.75 369.985 131.75C361.556 127.804 359.34 140.562 359.326 143.56C359.326 146.559 359.116 149.996 354.628 152.372C345.778 157.067 352.342 166.742 352.342 166.742C352.412 166.784 355.848 173.7 355.848 173.7C355.792 171.282 367.671 159.288 373.673 155.865C375.216 153.885 375.959 150.236 376.015 149.953C375.58 152.853 374.977 154.451 374.472 155.342C379.647 151.141 377.894 134.65 374.837 132.613Z" fill="#A83F3F"/>
<path d="M364.501 153.051C364.501 153.051 366.787 153.15 369.214 153.376C370.855 153.532 372.608 153.716 373.533 154.112C375.819 155.073 375.581 159.161 370.784 158.397C365.974 157.647 364.165 154.267 364.501 153.051Z" fill="#FDB3B1"/>
<path d="M373.322 156.036C373.35 156.05 374.009 159.544 370.868 159.402C368.806 159.318 364.361 156.8 364.753 155.018C364.936 154.169 366.492 151.977 366.815 146.956L367.194 147.055L373.505 148.766C373.505 148.766 373.224 150.789 373.098 152.698C372.972 154.311 372.972 155.838 373.322 156.036Z" fill="#FDB3B1"/>
<path d="M373.492 148.766C373.492 148.766 373.211 150.788 373.085 152.697C369.509 152.358 367.84 148.935 367.181 147.054L373.492 148.766Z" fill="#FCA09E"/>
<path d="M366.577 146.319C366.577 146.319 364.894 143.208 364.614 140.619C364.417 138.766 365.778 132.077 372.453 133.505C372.453 133.505 374.403 133.83 376.156 135.202C377.558 136.291 379.522 138.597 376.773 144.339L376.03 146.291L366.577 146.319Z" fill="#A83F3F"/>
<path d="M374.57 150.661C374.57 150.661 366.099 150.237 366.435 144.919C366.786 139.601 365.916 135.966 371.344 136.009C376.771 136.051 377.683 138.158 378.006 139.955C378.328 141.765 376.785 150.633 374.57 150.661Z" fill="#FDB3B1"/>
<path d="M375.215 136.136C375.215 136.136 372.481 142.218 368.862 142.911C365.244 143.589 363.757 142.529 363.757 142.529C363.757 142.529 366.632 140.52 367.446 136.744C367.46 136.744 373.659 133.038 375.215 136.136Z" fill="#A83F3F"/>
<path d="M374.613 136.602C374.613 136.602 376.254 138.116 376.591 139.502C376.928 140.888 376.928 143.688 377.741 143.646C377.741 143.646 379.775 139.516 377.965 136.984C376.044 134.297 374.613 136.602 374.613 136.602Z" fill="#A83F3F"/>
<path d="M383.055 188.806C382.368 189.627 380.222 189.881 377.936 190.263C376.141 190.56 374.248 190.942 372.902 191.734C369.844 193.544 359.859 199.654 356.928 199.386C355.792 199.273 356.002 197.094 356.689 194.195C357.769 189.612 360.041 183.262 360.041 180.504C360.041 178.991 360.532 175.426 361.205 171.339C361.261 171.014 361.317 170.674 361.373 170.349C362.692 162.414 364.515 153.065 364.515 153.065C364.515 153.065 366.548 157.535 370.503 157.535C374.458 157.535 373.547 154.126 373.547 154.126C373.547 154.126 377.151 154.551 378.006 155.484C378.862 156.417 381.022 160.42 381.456 161.509C381.456 161.509 381.541 162.895 378.133 163.56C378.133 163.56 378.96 167.336 379.058 169.854C379.128 171.707 377.796 177.52 377.417 181.14C377.277 182.428 377.263 183.432 377.474 183.884C377.74 184.464 378.595 185.044 379.563 185.624C381.471 186.741 383.869 187.83 383.055 188.806Z" fill="#FFE921"/>
<path d="M379.548 185.596C381.736 189.358 373.616 190.49 372.27 191.296C369.212 193.106 359.872 199.669 356.941 199.386C355.805 199.273 356.015 197.095 356.702 194.195C357.782 189.613 360.054 183.262 360.054 180.504C360.054 178.991 360.545 175.427 361.218 171.339L364.738 167.931C364.738 167.931 368.511 177.775 372.115 179.387C373.995 180.236 375.972 180.787 377.417 181.127C377.276 182.414 377.262 183.418 377.473 183.87C377.711 184.45 378.567 185.03 379.548 185.596Z" fill="#E6CF06"/>
<path d="M363.42 156.007C363.42 156.007 360.405 154.169 357.502 157.662C354.585 161.156 359.563 186.176 363.883 187.449C368.679 188.877 382.522 187.222 382.522 187.222L382.255 185.044C382.255 185.044 367.515 182.187 366.898 181.395C366.281 180.603 364.949 156.403 363.42 156.007Z" fill="#FDB3B1"/>
<path d="M364.5 153.051C364.5 153.051 358.315 153.617 356.52 155.667C354.725 157.718 354.192 163.277 354.192 163.277C354.192 163.277 359.634 167.718 366.197 165.992L364.5 153.051Z" fill="#E6CF06"/>
<path d="M392.142 188.397H383.965V189.373H392.142V188.397Z" fill="#D6B300"/>
<path d="M390.404 189.231C390.488 188.906 397.921 177.138 397.921 177.138H414.456L406.167 188.906L390.404 189.231Z" fill="#D6B300"/>
<path d="M391.089 189.373C391.174 189.048 398.621 177.153 398.621 177.153H414.44L406.544 189.373H391.089Z" fill="#FF7A00"/>
<path d="M405.029 183.29C404.861 183.771 404.356 184.153 403.879 184.153C403.403 184.153 403.15 183.771 403.318 183.29C403.487 182.809 403.992 182.427 404.468 182.427C404.945 182.427 405.198 182.823 405.029 183.29Z" fill="#D6B300"/>
<path d="M381.049 184.917C381.049 184.917 385.845 183.984 386.392 184.21C386.939 184.451 389.955 187.18 389.646 187.718C389.337 188.269 388.103 188.651 386.701 188.185C385.312 187.718 382.283 187.477 381.75 186.784C381.203 186.091 381.049 184.917 381.049 184.917Z" fill="#FDB3B1"/>
<defs>
<clipPath id="clip0">
<rect width="48" height="163" fill="white" transform="translate(87 194)"/>
</clipPath>
<clipPath id="clip1">
<rect width="82" height="177" fill="white" transform="translate(687 110)"/>
</clipPath>
<clipPath id="clip2">
<rect width="66" height="147" fill="white" transform="matrix(-1 0 0 1 284 0)"/>
</clipPath>
<clipPath id="clip3">
<rect width="60" height="71" fill="white" transform="matrix(-1 0 0 1 1006 216)"/>
</clipPath>
<clipPath id="clip4">
<rect width="57" height="133" fill="white" transform="matrix(-1 0 0 1 57 153)"/>
</clipPath>
</defs>
</svg>
